<svg xmlns="http://www.w3.org/2000/svg" height="48" viewBox="0 -960 960 960" width="48"><path fill="#eaeaea" d="M761-129 526.472-364Q496-341.077 457.541-328.038 419.082-315 373.438-315q-115.373 0-193.905-78.66Q101-472.32 101-585.16t78.66-191.34q78.66-78.5 191.5-78.5t191.34 78.613Q641-697.773 641-584.85q0 45.85-13 83.35-13 37.5-38 71.5l238 236q13 14.023 13 33.103 0 19.079-14.192 32.375Q812.543-115 793.549-115q-18.993 0-32.549-14ZM371.441-406q75.985 0 127.272-51.542Q550-509.083 550-584.588q0-75.505-51.346-127.459Q447.309-764 371.529-764q-76.612 0-128.071 51.953Q192-660.093 192-584.588t51.311 127.046Q294.623-406 371.441-406Z"/></svg>