<svg xmlns="http://www.w3.org/2000/svg" height="48" viewBox="0 -960 960 960" width="48"><path fill="#e99e0e" d="M581-76q-27.462 27-65.731 27Q477-49 450-76L76-450q-15.167-14.914-20.583-31.569Q50-498.224 50-516v-303q0-38.4 26.3-65.2Q102.6-911 141-911h303q18.84 0 35.902 6.062Q496.964-898.875 512-884l372 371q28 28 27.5 67.5T884-379L581-76Zm-62-63 304-303-378.448-377H141v303.744L519-139ZM245.471-665q20.887 0 35.708-15.174Q296-695.348 296-715.882q0-20.535-15.071-35.326Q265.858-766 245.471-766q-20.888 0-35.679 14.985Q195-736.029 195-715.765q0 20.682 14.792 35.723Q224.583-665 245.471-665ZM141-819Z"/></svg>