<svg xmlns="http://www.w3.org/2000/svg" height="48" viewBox="0 -960 960 960" width="48"><path d="M292.652-91.912q-20.297-5.44-26.127-26.764-5.829-21.323 9.301-35.889l24.565-24.565q-65.34-2.261-110.888-50.487-45.547-48.226-45.547-114.992V-720.28q0-48.69 20.789-81.804 20.788-33.113 63.522-53.819Q271-876.609 334.13-886.609q63.131-10 145.87-10 86 0 149.049 9.125 63.048 9.125 105.174 29.565 42.125 20.44 62.256 54.218 20.13 33.779 20.13 83.278v375.814q0 66.766-45.83 114.992t-111.17 50.487l25.565 24.565q14.13 14.566 8.301 35.889-5.83 21.324-26.388 26.764-9.826 2.435-18.848-.348-9.022-2.783-14.971-9.296l-77.008-76.443H404.74l-77.008 76.443q-6.525 6.736-15.771 9.407-9.245 2.672-19.309.237ZM480-815.782q-120.413 0-174.141 15.282-53.729 15.283-75.598 44.848h497.087q-18.435-27.13-74.544-43.63-56.108-16.5-172.804-16.5Zm-255.782 275.13H453.13v-153.391H224.218v153.391Zm424.651 61.609H224.218h511.564-86.913Zm-134.13-61.609h221.043v-153.391H514.739v153.391ZM337.482-310.696q21.542 0 38.878-16.861 17.336-16.862 17.336-39.37 0-21.943-17.545-38.877-17.545-16.935-39.37-16.935-21.824 0-38.476 17.144-16.653 17.144-16.653 39.37 0 22.225 16.862 38.877 16.861 16.652 38.968 16.652Zm286.019 0q21.542 0 38.477-16.861 16.935-16.862 16.935-39.37 0-21.943-17.144-38.877-17.144-16.935-38.969-16.935-21.824 0-38.877 17.144t-17.053 39.37q0 22.225 17.262 38.877t39.369 16.652Zm-312.37 56.87h338.142q36.008 0 61.258-26.205 25.251-26.206 25.251-64.578v-134.434H224.218v134.904q0 37.469 25.034 63.891 25.034 26.422 61.879 26.422ZM480-755.652h247.348-497.087H480Z"/></svg>