<svg xmlns="http://www.w3.org/2000/svg" height="52" viewBox="0 104 960 960" width="52"><path fill="black" d="M778 713h92V391q0-22.077-10.588-41.137Q848.823 330.803 831 317L637 178q-24.859-17-54.43-17Q553 161 529 178L336 317q-18.882 13.542-28.441 32.684Q298 368.826 298 391v109h92V390l193-135 195 135v323ZM583 255Zm40.286 197Q613 452 605.5 445.143q-7.5-6.857-7.5-17.5T605.257 410q7.257-7 17.6-7 10.743 0 17.943 7.043 7.2 7.043 7.2 17.1Q648 438 640.786 445q-7.215 7-17.5 7Zm-80 0Q533 452 525.5 445.143q-7.5-6.857-7.5-17.5T525.257 410q7.257-7 17.6-7 10.743 0 17.943 7.043 7.2 7.043 7.2 17.1Q568 438 560.786 445q-7.215 7-17.5 7Zm80 80Q613 532 605.5 525.143q-7.5-6.857-7.5-17.5T605.257 490q7.257-7 17.6-7 10.743 0 17.943 7.043 7.2 7.043 7.2 17.1Q648 518 640.786 525q-7.215 7-17.5 7Zm-80 0Q533 532 525.5 525.143q-7.5-6.857-7.5-17.5T525.257 490q7.257-7 17.6-7 10.743 0 17.943 7.043 7.2 7.043 7.2 17.1Q568 518 560.786 525q-7.215 7-17.5 7ZM550 942l248-78q-6-8-15.694-21-9.693-13-20.306-13H516q5.373 0-10.161-1.5-15.533-1.5-29.839-8.441l-67-19.814q-12-.951-17-13.13t-2.5-24.37q4.5-11.843 15.278-16.794Q415.556 741 428 744l102 34q-6-1 8.5-2.5t44.986-2.5H592q0-11.419-4.5-23.014-4.5-11.595-15.574-17.02L328 640h-75v214l297 88Zm-21 75-276-79q-9 28-35.757 40.5Q190.486 991 162 991h-61q-36.775 0-63.888-27.138Q10 936.725 10 899V652q0-38.588 27.112-65.294Q64.225 560 101 560h224q8.037 0 16.074 1.7T357 566l241 91q32 11 55 40t23 76h94q51.167 0 84.083 25.5Q887 824 887 882q0 20-9 33t-25 18l-272 84q-14.171 5-27.029 4.5-12.857-.5-24.971-4.5ZM91 911h81V639H91v272Z"/></svg>