<svg xmlns="http://www.w3.org/2000/svg" height="49" viewBox="0 96 960 960" width="49"><path fill="#259f31" d="M480 902q-56 0-108.5-18T279 834l-54 53q-13 13-31.5 13t-31-13.5Q149 874 149 855.5t14-30.5l52-55q-32.343-41.163-50.172-92.658Q147 625.846 147 569q0-139.212 96.923-236.606Q340.847 235 480.5 235H814v333.5q0 139.653-97.069 236.577Q619.862 902 480 902Zm0-92q101.333 0 172.167-70.25Q723 669.5 723 569.059V326H479.824Q378.5 326 308.75 396.833 239 467.667 239 569q0 37.936 10.5 72.468Q260 676 281 705l202-200q12-13 30.5-13t31.413 12.913Q558 517.933 558 536.967 558 556 545 568L345 768q28 20 62.532 31T480 810Zm0-241Z"/></svg>