<svg xmlns="http://www.w3.org/2000/svg" height="48" viewBox="0 96 960 960" width="48"><path fill="white" d="M398 975q-13 11-27 .403T362 949l30-101-82-62q-13-11-7.875-26.5T324 744h102l25-95.432-135.337-79.915q-23.821-13.659-37.242-36.64Q265 509.032 265 481.029V226q0-37.188 26.413-64.594Q317.825 134 356 134h248q38.175 0 64.588 27.406Q695 188.812 695 226v255q0 27.39-13.184 50.674Q668.632 554.957 644 569l-136 79.568L534 744h101q16.75 0 21.875 15.5T650 786l-83 62 30 101q5 15.613-9 25.806Q574 985 562 974l-82-59-82 60Zm-53-761v267.489q0 7 4.5 13t13.5 11L455 555V214H345Zm270 0H512v341l85-49.511q9-5 13.5-11t4.5-13V214ZM484 393Zm-29-9Zm57 0Z"/></svg>