<svg xmlns="http://www.w3.org/2000/svg" height="48" viewBox="0 96 960 960" width="48"><path fill="white" d="M149 918q-37.45 0-64.225-26.775Q58 864.45 58 827V325q0-37.863 26.775-64.931Q111.55 233 149 233h662q37.863 0 64.931 27.069Q903 287.137 903 325v502q0 37.45-27.069 64.225Q848.863 918 811 918H149Zm0-91h662V409H149v418Zm214-209-83-85q-9-7-8.5-19t9.5-20q7-8 18.5-8.5T320 494l91 91q13 13.364 13 33.182T411 650l-91 91q-8 9-20 9t-19-9q-9-7-9-19t9-20l82-84Zm157 148q-11.6 0-19.8-8.2-8.2-8.2-8.2-19.8 0-11.6 8.2-20.3 8.2-8.7 19.8-8.7h160q11.6 0 20.3 8.7 8.7 8.7 8.7 20.3 0 11.6-8.7 19.8-8.7 8.2-20.3 8.2H520Z"/></svg>