<svg xmlns="http://www.w3.org/2000/svg" height="48" viewBox="0 -960 960 960" width="48"><path fill="#eaeaea" d="M297-78q-22.065-5.778-28.532-28.889Q262-130 278-145l25-25q-69.207-4-117.604-57.136Q137-280.271 137-352v-367.836q0-52.957 22.31-87.42 22.311-34.463 67-55.603Q271-884 335-894t145-10q86 0 150.353 9.125 64.353 9.125 108 30Q782-844 803-808.612q21 35.388 21 88.633V-352q0 71.729-48.896 124.864Q726.207-174 657-170l26 25q15 15 8.532 38.111Q685.065-83.778 662.739-78q-10.294 2-19.517-1-9.222-3-15.131-9.91L548-168H413l-80.091 79.09q-6.485 7.132-15.931 10.021Q307.531-76 297-78Zm183-733q-119.961 0-173.48 15.5Q253-780 232-750h491q-18-28-71.5-44.5T480-811ZM229-535h225v-156H229v156Zm409 59H229h502-93Zm-125-59h218v-156H513v156ZM340-312q20.581 0 37.791-16.209Q395-344.419 395-366.709 395-388 377.581-404.5q-17.418-16.5-38.5-16.5Q318-421 302-404.291q-16 16.71-16 38.5Q286-344 302.209-328q16.21 16 37.791 16Zm281.419 0Q642-312 658.5-328.209q16.5-16.21 16.5-38.5Q675-388 658.291-404.5 641.581-421 620.5-421q-21.081 0-37.791 16.709Q566-387.581 566-365.791 566-344 582.919-328q16.918 16 38.5 16ZM322-256h316.404q37.863 0 65.229-27.683Q731-311.367 731-352v-124H229v124.47q0 39.73 27.15 67.63T322-256Zm158-494h243-491 248Z"/></svg>